<?xml version="1.0" encoding="utf-8"?>
<!-- Generator: Adobe Illustrator 15.0.0, SVG Export Plug-In . SVG Version: 6.00 Build 0)  -->
<!DOCTYPE svg PUBLIC "-//W3C//DTD SVG 1.1//EN" "http://www.w3.org/Graphics/SVG/1.1/DTD/svg11.dtd">
<svg version="1.1" xmlns="http://www.w3.org/2000/svg" xmlns:xlink="http://www.w3.org/1999/xlink" x="0px" y="0px"
	 width="1500.119px" height="501.869px" viewBox="0 0 1500.119 501.869" enable-background="new 0 0 1500.119 501.869"
	 xml:space="preserve">
<g id="background_1_" enable-background="new    ">
	<g id="background">
		<g>
			<path fill-rule="evenodd" clip-rule="evenodd" fill="#BA0305" d="M1318.256,55.522H181.147c-45.026,0-81.526,36.5-81.526,81.526
				V364.59c0,45.023,36.5,81.525,81.526,81.525h1137.109c45.025,0,81.524-36.502,81.524-81.525V137.048
				C1399.78,92.022,1363.281,55.522,1318.256,55.522z"/>
		</g>
	</g>
</g>
<g id="CSFD_1_" enable-background="new    ">
	<g id="CSFD">
		<g>
			<path fill-rule="evenodd" clip-rule="evenodd" fill="#FFFFFF" d="M1130.044,172.98c-2.101-12.868-6.955-24.385-14.556-34.562
				c-6.032-8.378-14.259-14.364-24.684-17.957c-10.431-3.588-22.618-5.387-36.565-5.387H820.188l-11.539,49.767h229.568
				c12.156,0,21.038,5.084,26.657,15.254c5.151,9.571,6.182,21.036,3.086,34.393c-3.375,14.559-11.25,26.521-23.621,35.89
				c-14.297,10.767-32.839,16.15-55.639,16.15l18.078-76.6h-59.545l-1.827,7.795l1.799-7.759H802.825l-13.213,57
				c1.806-12.482,0.013-25.422-5.378-38.82c-6.589-12.768-13.073-25.535-19.463-38.305c-7.379-15.362-10.661-29.527-9.839-42.496
				c0.508-2.194,1.143-4.089,1.901-5.686c0.758-1.592,1.949-3.788,3.573-6.584h-56.44c-0.812,1.795-1.829,4.038-3.05,6.729
				s-2.18,5.533-2.873,8.524c-2.82,12.165-2.308,24.524,1.536,37.086c2.369,7.776,7.424,18.542,15.163,32.301
				c8.302,14.754,13.647,25.122,16.039,31.103c1.821,4.988,2.158,9.971,1.002,14.955c-1.248,5.383-3.981,9.869-8.194,13.457
				c-4.217,3.592-8.71,5.386-13.481,5.386h-69.854c-20.129,0-34.612-3.288-43.449-9.859c-11.063-8.165-14.329-22.005-9.806-41.52
				c3.878-16.727,13.837-29.175,29.88-37.34c12.883-6.573,28.489-9.858,46.825-9.858h13.451l11.814-50.963h-35.571
				c-32.882,0-61.24,9.28-85.069,27.833c-23.831,18.554-39.121,42.395-45.873,71.521c-5.503,23.743-3.755,44.988,5.251,63.741
				c11.539,24.145,32.954,36.211,64.243,36.211h113.556c21.112,0,39.479-6.182,55.094-18.554
				c12.966-10.252,21.761-22.78,26.396-37.577l-13.011,56.131h59.544l17.305-74.649h84.727l-17.498,74.649h77.721
				c11.754,0,24.343-1.645,37.762-4.938c13.414-3.289,26.022-8.031,37.82-14.213c13.021-7.183,24.778-18.352,35.27-33.516
				c10.486-15.163,17.77-31.523,21.84-49.079C1131.619,199.067,1132.141,185.848,1130.044,172.98z"/>
		</g>
	</g>
</g>
<g id="_x2E_cz_1_" enable-background="new    ">
	<g id="_x2E_cz">
		<g>
			<path fill-rule="evenodd" clip-rule="evenodd" fill="#FFFFFF" d="M1105.646,313.928h29.839l6.989-29.789h-29.835
				L1105.646,313.928z M1200.48,278.217c-6.641-4.901-8.579-13.218-5.827-24.943c2.356-10.049,8.362-17.524,18.022-22.431
				c7.757-3.947,17.146-5.922,28.172-5.922h8.088l7.16-30.506h-21.39c-19.771,0-36.833,5.563-51.188,16.689
				c-14.356,11.126-23.581,25.423-27.681,42.888c-3.34,14.238-2.316,26.979,3.075,38.225c6.905,14.475,19.766,21.712,38.581,21.712
				h30.555l6.992-29.789h-8.449C1214.488,284.139,1205.785,282.165,1200.48,278.217z M1264.181,194.414l-6.989,29.788h38.455
				l-10.134,15.075h-0.046l-49.33,74.651h88.431l7.076-30.147h-38.285l29.675-44.503h-0.066l10.447-15.075h0.168l19.032-29.788
				H1264.181z"/>
		</g>
	</g>
</g>
<g id="hlavia_1_" enable-background="new    ">
	<g id="hlavia">
		<g>
			<path fill-rule="evenodd" clip-rule="evenodd" fill="#FFFFFF" d="M330.58,185.418c-26.351,0-51.667,21.544-56.545,48.121
				c-4.879,26.576,12.526,48.121,38.877,48.121c26.35,0,51.667-21.545,56.545-48.121C374.336,206.962,356.93,185.418,330.58,185.418
				z"/>
		</g>
	</g>
</g>
<g id="telo_1_" enable-background="new    ">
	<g id="telo">
		<g>
			<path fill-rule="evenodd" clip-rule="evenodd" fill="#FFFFFF" d="M305.897,279.918c-39.022,0-75.144,30.359-85.444,69.808
				h153.112C373.311,310.277,344.921,279.918,305.897,279.918z"/>
		</g>
	</g>
</g>
<g id="film._pas_1_" enable-background="new    ">
	<g id="film._pas">
		<g>
			<path fill-rule="evenodd" clip-rule="evenodd" fill="#FFFFFF" d="M440.659,114.997l-5.606,24.03
				c-0.483,2.071-2.554,3.75-4.625,3.75H257.09c-2.073,0-3.359-1.679-2.876-3.75l5.606-24.03h-50.26l-62.217,266.691h0.091
				l-1.129,4.84h49.891l5.116-21.926c0.483-2.071,2.553-3.75,4.624-3.75h173.339c2.071,0,3.358,1.679,2.875,3.75l-3.985,17.086
				h0.056l-1.105,4.739h0.065l-0.016,0.066h51.026l1.121-4.806h0.094l62.216-266.691H440.659z M214.044,144.185l3.146-13.484
				c0.483-2.071,2.554-3.751,4.625-3.751h18.371c2.071,0,3.359,1.68,2.876,3.751l-3.146,13.484c-0.485,2.071-2.555,3.75-4.625,3.75
				h-18.372C214.849,147.935,213.561,146.256,214.044,144.185z M203.539,189.218l0.917-3.934c0.016-0.188,0.03-0.376,0.076-0.571
				l2.097-8.991c0.483-2.071,2.554-3.75,4.625-3.75h18.283c1.083,0,1.943,0.466,2.456,1.201c0.588,0.685,0.836,1.662,0.582,2.755
				l-3.1,13.29c-0.483,2.071-2.555,3.75-4.625,3.75h-18.437C204.343,192.968,203.055,191.289,203.539,189.218z M192.88,235.071
				l3.148-13.493c0.483-2.071,2.553-3.75,4.624-3.75h18.225c2.071,0,3.357,1.679,2.875,3.75l-3.147,13.493
				c-0.483,2.071-2.555,3.75-4.625,3.75h-18.224C193.685,238.821,192.396,237.143,192.88,235.071z M189.864,358.723l-3.14,13.457
				c-0.483,2.071-2.553,3.75-4.624,3.75h-18.354c-2.071,0-3.359-1.679-2.876-3.75l3.14-13.457c0.483-2.071,2.553-3.75,4.624-3.75
				h18.355C189.061,354.973,190.347,356.651,189.864,358.723z M200.593,313.351l-3.157,13.529c-0.483,2.071-2.553,3.75-4.624,3.75
				h-18.499c-2.071,0-3.359-1.679-2.876-3.75l3.157-13.529c0.483-2.071,2.553-3.75,4.624-3.75h18.499
				C199.789,309.601,201.077,311.279,200.593,313.351z M203.354,284.825h-18.355c-2.071,0-3.359-1.679-2.876-3.75l3.14-13.457
				c0.483-2.071,2.553-3.75,4.625-3.75h18.353c2.073,0,3.359,1.679,2.876,3.75l-3.14,13.457
				C207.495,283.146,205.425,284.825,203.354,284.825z M383.635,343.351H210.019c-2.071,0-3.357-1.679-2.875-3.75l40.764-174.738
				c0.484-2.073,2.554-3.751,4.625-3.751h173.616c2.071,0,3.359,1.679,2.876,3.751L388.26,339.601
				C387.777,341.672,385.707,343.351,383.635,343.351z M421.909,358.723l-3.156,13.529c-0.483,2.071-2.555,3.75-4.624,3.75h-18.283
				c-2.071,0-3.359-1.679-2.876-3.75l3.156-13.529c0.483-2.071,2.554-3.75,4.625-3.75h18.283
				C421.105,354.973,422.392,356.651,421.909,358.723z M432.638,313.351l-3.156,13.529c-0.483,2.071-2.554,3.75-4.625,3.75H406.43
				c-2.071,0-3.357-1.679-2.875-3.75l3.156-13.529c0.483-2.071,2.554-3.75,4.625-3.75h18.427
				C431.835,309.601,433.122,311.279,432.638,313.351z M443.309,267.618l-3.124,13.385c-0.483,2.071-2.553,3.75-4.624,3.75h-18.427
				c-2.071,0-3.359-1.679-2.876-3.75l3.124-13.385c0.481-2.071,2.553-3.75,4.624-3.75h18.427
				C442.504,263.868,443.792,265.547,443.309,267.618z M454.077,221.453l-3.156,13.529c-0.483,2.073-2.554,3.751-4.625,3.751H427.87
				c-2.073,0-3.359-1.679-2.876-3.751l3.156-13.529c0.484-2.07,2.554-3.75,4.625-3.75h18.427
				C453.273,217.703,454.562,219.383,454.077,221.453z M464.763,175.65l-3.156,13.529c-0.483,2.071-2.554,3.75-4.624,3.75h-18.428
				c-2.071,0-3.358-1.679-2.875-3.75l3.156-13.529c0.483-2.071,2.554-3.75,4.625-3.75h18.427
				C463.959,171.9,465.246,173.579,464.763,175.65z M472.108,144.166c-0.483,2.072-2.554,3.751-4.625,3.751h-18.427
				c-2.071,0-3.358-1.679-2.875-3.751l3.156-13.529c0.483-2.071,2.554-3.75,4.625-3.75h18.425c2.073,0,3.359,1.679,2.876,3.75
				L472.108,144.166z"/>
		</g>
	</g>
</g>
<g id="_x28_R_x29__1_" enable-background="new    ">
	<g id="_x28_R_x29_">
		<g>
			<path fill-rule="evenodd" clip-rule="evenodd" fill="#FFFFFF" d="M1339.408,145.073h-0.101c-9.378,0-16.857,7.345-16.857,16.729
				c0,9.385,7.479,16.832,16.857,16.832s16.76-7.446,16.76-16.832C1356.067,152.418,1348.686,145.073,1339.408,145.073z
				 M1339.408,175.167c-7.28,0-12.77-5.916-12.77-13.364c0-7.344,5.489-13.363,12.571-13.363h0.098
				c7.183,0,12.571,6.019,12.571,13.467C1351.879,169.25,1346.49,175.269,1339.408,175.167z M1343.101,162.313v-0.204
				c1.896-0.611,3.39-1.938,3.39-3.978c0-1.633-0.698-2.857-1.696-3.571c-1.096-0.816-2.492-1.326-5.584-1.326
				c-2.694,0-4.789,0.306-6.286,0.509v16.729h3.791v-6.63h1.797c2.094,0,3.092,0.815,3.393,2.55c0.498,2.041,0.796,3.47,1.295,4.081
				h3.989c-0.3-0.61-0.698-1.53-1.197-4.081C1345.492,164.15,1344.696,162.823,1343.101,162.313z M1338.609,161.09h-1.794v-4.794
				c0.397-0.102,1.096-0.205,2.094-0.205c2.395,0,3.493,1.02,3.493,2.55C1342.402,160.376,1340.704,161.09,1338.609,161.09z"/>
		</g>
	</g>
</g>
<g id="Česko-Slovenská_filmová_databáze_1_" enable-background="new    ">
	<g id="Česko-Slovenská_filmová_databáze">
		<g>
			<path fill-rule="evenodd" clip-rule="evenodd" fill="#FFFFFF" d="M542.426,349.141l4.936-7.024h-5.388l-2.767,3.548l-2.574-3.548
				h-5.413l5.008,7.024H542.426z M544.31,378.967c-1.352,1.191-2.965,1.786-4.84,1.786c-2.543,0-4.609-0.935-6.199-2.81
				c-1.589-1.872-2.384-5.014-2.384-9.428c0-4.156,0.806-7.165,2.42-9.02c1.613-1.857,3.715-2.787,6.306-2.787
				c1.876,0,3.47,0.525,4.781,1.572c1.311,1.048,2.174,2.476,2.588,4.284l6.985-1.668c-0.795-2.792-1.986-4.936-3.576-6.427
				c-2.671-2.523-6.144-3.784-10.42-3.784c-4.895,0-8.846,1.606-11.85,4.82c-3.004,3.213-4.507,7.725-4.507,13.534
				c0,5.492,1.494,9.819,4.482,12.986c2.988,3.165,6.803,4.748,11.446,4.748c3.751,0,6.847-0.923,9.287-2.771
				c2.44-1.85,4.184-4.679,5.234-8.487l-6.844-2.166C546.631,375.906,545.662,377.778,544.31,378.967z M578.5,364.054
				c-2.18-2.483-5.15-3.727-8.918-3.727c-3.354,0-6.128,1.188-8.322,3.56c-2.193,2.374-3.29,5.653-3.29,9.845
				c0,3.508,0.833,6.412,2.502,8.712c2.114,2.873,5.374,4.31,9.776,4.31c2.782,0,5.1-0.638,6.952-1.916
				c1.852-1.277,3.207-3.139,4.064-5.584l-6.675-1.119c-0.366,1.271-0.907,2.191-1.623,2.763s-1.597,0.857-2.647,0.857
				c-1.542,0-2.83-0.552-3.862-1.656c-1.034-1.102-1.573-2.646-1.621-4.63h16.786C581.719,370.342,580.678,366.537,578.5,364.054z
				 M564.955,371.375c-0.016-1.826,0.455-3.271,1.408-4.333c0.954-1.064,2.162-1.595,3.623-1.595c1.368,0,2.528,0.502,3.482,1.511
				c0.953,1.007,1.455,2.481,1.503,4.417H564.955z M606.131,373.302c-1.415-1.174-3.907-2.166-7.475-2.977
				c-3.568-0.809-5.655-1.435-6.258-1.878c-0.446-0.335-0.669-0.739-0.669-1.215c0-0.557,0.255-1.01,0.763-1.358
				c0.764-0.49,2.028-0.738,3.792-0.738c1.399,0,2.477,0.262,3.231,0.787c0.756,0.522,1.268,1.278,1.539,2.262l6.317-1.166
				c-0.635-2.206-1.796-3.874-3.48-5.002c-1.685-1.125-4.26-1.689-7.727-1.689c-3.64,0-6.326,0.747-8.058,2.238
				c-1.733,1.491-2.599,3.334-2.599,5.523c0,2.429,1.001,4.324,3.004,5.688c1.447,0.984,4.872,2.071,10.276,3.263
				c1.16,0.271,1.907,0.563,2.242,0.88c0.319,0.335,0.477,0.756,0.477,1.264c0,0.744-0.295,1.341-0.882,1.785
				c-0.874,0.635-2.178,0.952-3.91,0.952c-1.574,0-2.798-0.338-3.672-1.013s-1.455-1.661-1.741-2.965l-6.724,1.023
				c0.62,2.397,1.936,4.295,3.946,5.691s4.741,2.095,8.191,2.095c3.799,0,6.667-0.834,8.607-2.498
				c1.938-1.668,2.909-3.661,2.909-5.978C608.23,376.151,607.529,374.493,606.131,373.302z M636.505,360.897h-8.25l-7.845,8.905
				V351.28h-6.701v34.901h6.701v-8.095l3.124-3.262l6.367,11.356h7.224l-9.275-16.047L636.505,360.897z M652.454,360.327
				c-2.479,0-4.725,0.548-6.736,1.644c-2.012,1.097-3.565,2.683-4.663,4.76c-1.096,2.08-1.645,4.231-1.645,6.453
				c0,2.904,0.548,5.368,1.645,7.39c1.098,2.025,2.698,3.561,4.806,4.607c2.105,1.05,4.319,1.572,6.64,1.572
				c3.751,0,6.863-1.258,9.334-3.773c2.472-2.516,3.708-5.686,3.708-9.511c0-3.793-1.225-6.932-3.672-9.415
				C659.425,361.57,656.285,360.327,652.454,360.327z M656.876,379.302c-1.183,1.333-2.649,1.999-4.399,1.999
				c-1.748,0-3.219-0.666-4.411-1.999c-1.193-1.333-1.789-3.254-1.789-5.761s0.596-4.428,1.789-5.761
				c1.191-1.335,2.663-2.002,4.411-2.002c1.75,0,3.216,0.667,4.399,2.002c1.186,1.333,1.777,3.236,1.777,5.712
				C658.653,376.033,658.062,377.969,656.876,379.302z M669.881,376.873h13.161v-6.689h-13.161V376.873z M708.183,366.909
				c-1.646-0.862-4.184-1.702-7.618-2.51c-3.434-0.811-5.596-1.586-6.486-2.333c-0.7-0.589-1.049-1.296-1.049-2.12
				c0-0.903,0.374-1.627,1.121-2.167c1.16-0.839,2.767-1.261,4.816-1.261c1.987,0,3.478,0.393,4.471,1.178
				c0.994,0.787,1.641,2.076,1.943,3.871l7.059-0.312c-0.113-3.205-1.275-5.77-3.493-7.688c-2.218-1.922-5.52-2.882-9.907-2.882
				c-2.687,0-4.98,0.403-6.88,1.214c-1.899,0.808-3.354,1.988-4.363,3.537c-1.01,1.546-1.515,3.207-1.515,4.987
				c0,2.761,1.073,5.1,3.219,7.021c1.526,1.364,4.181,2.515,7.964,3.452c2.939,0.73,4.823,1.238,5.651,1.523
				c1.208,0.427,2.054,0.932,2.539,1.512c0.485,0.579,0.729,1.28,0.729,2.105c0,1.286-0.577,2.409-1.729,3.369
				c-1.152,0.961-2.866,1.439-5.137,1.439c-2.146,0-3.853-0.539-5.116-1.618c-1.263-1.079-2.102-2.77-2.515-5.071l-6.867,0.667
				c0.461,3.905,1.875,6.876,4.245,8.916c2.368,2.039,5.762,3.061,10.181,3.061c3.036,0,5.571-0.427,7.605-1.275
				c2.035-0.848,3.609-2.146,4.722-3.891c1.112-1.746,1.669-3.621,1.669-5.62c0-2.206-0.464-4.059-1.395-5.559
				C711.115,368.957,709.829,367.774,708.183,366.909z M719.184,386.182h6.699V351.28h-6.699V386.182z M744.098,360.327
				c-2.48,0-4.726,0.548-6.737,1.644c-2.01,1.097-3.564,2.683-4.662,4.76c-1.096,2.08-1.646,4.231-1.646,6.453
				c0,2.904,0.55,5.368,1.646,7.39c1.098,2.025,2.699,3.561,4.806,4.607c2.105,1.05,4.318,1.572,6.64,1.572
				c3.75,0,6.861-1.258,9.336-3.773c2.47-2.516,3.707-5.686,3.707-9.511c0-3.793-1.227-6.932-3.672-9.415
				C751.067,361.57,747.927,360.327,744.098,360.327z M748.52,379.302c-1.184,1.333-2.651,1.999-4.399,1.999
				c-1.75,0-3.219-0.666-4.411-1.999c-1.193-1.333-1.789-3.254-1.789-5.761s0.596-4.428,1.789-5.761
				c1.191-1.335,2.661-2.002,4.411-2.002c1.748,0,3.215,0.667,4.399,2.002c1.184,1.333,1.777,3.236,1.777,5.712
				C750.297,376.033,749.704,377.969,748.52,379.302z M773.637,373.804c-0.254,0.712-0.494,1.428-0.716,2.141
				c-0.095,0.349-0.326,1.072-0.692,2.166l-1.382-4.307l-4.769-12.906h-7.035l10.206,25.284h6.034l10.062-25.284h-6.892
				L773.637,373.804z M807.874,364.054c-2.179-2.483-5.152-3.727-8.917-3.727c-3.354,0-6.13,1.188-8.321,3.56
				c-2.195,2.374-3.292,5.653-3.292,9.845c0,3.508,0.834,6.412,2.504,8.712c2.114,2.873,5.371,4.31,9.776,4.31
				c2.78,0,5.1-0.638,6.951-1.916c1.85-1.277,3.205-3.139,4.064-5.584l-6.678-1.119c-0.363,1.271-0.905,2.191-1.621,2.763
				c-0.715,0.571-1.595,0.857-2.645,0.857c-1.544,0-2.83-0.552-3.863-1.656c-1.035-1.102-1.574-2.646-1.621-4.63h16.786
				C811.093,370.342,810.052,366.537,807.874,364.054z M794.33,371.375c-0.017-1.826,0.453-3.271,1.408-4.333
				c0.952-1.064,2.16-1.595,3.623-1.595c1.367,0,2.526,0.502,3.481,1.511c0.952,1.007,1.454,2.481,1.503,4.417H794.33z
				 M837.663,363.159c-0.629-0.825-1.555-1.503-2.778-2.033c-1.223-0.531-2.572-0.799-4.053-0.799c-3.354,0-6.136,1.431-8.345,4.286
				v-3.716h-6.226v25.284h6.701v-11.452c0-2.824,0.17-4.76,0.514-5.807c0.34-1.047,0.972-1.89,1.896-2.524
				c0.923-0.634,1.964-0.951,3.124-0.951c0.905,0,1.682,0.222,2.324,0.666c0.644,0.444,1.108,1.067,1.394,1.869
				c0.288,0.802,0.43,2.567,0.43,5.296v12.903h6.701v-15.713c0-1.953-0.124-3.45-0.369-4.5
				C838.728,364.922,838.292,363.987,837.663,363.159z M865.188,373.302c-1.413-1.174-3.905-2.166-7.474-2.977
				c-3.568-0.809-5.656-1.435-6.26-1.878c-0.444-0.335-0.669-0.739-0.669-1.215c0-0.557,0.257-1.01,0.765-1.358
				c0.761-0.49,2.027-0.738,3.79-0.738c1.399,0,2.478,0.262,3.23,0.787c0.756,0.522,1.27,1.278,1.541,2.262l6.317-1.166
				c-0.638-2.206-1.798-3.874-3.482-5.002c-1.685-1.125-4.261-1.689-7.725-1.689c-3.641,0-6.326,0.747-8.06,2.238
				s-2.6,3.334-2.6,5.523c0,2.429,1.002,4.324,3.003,5.688c1.448,0.984,4.875,2.071,10.278,3.263
				c1.162,0.271,1.906,0.563,2.241,0.88c0.317,0.335,0.479,0.756,0.479,1.264c0,0.744-0.294,1.341-0.882,1.785
				c-0.874,0.635-2.179,0.952-3.912,0.952c-1.575,0-2.798-0.338-3.672-1.013s-1.454-1.661-1.739-2.965l-6.725,1.023
				c0.62,2.397,1.936,4.295,3.946,5.691s4.739,2.095,8.189,2.095c3.799,0,6.669-0.834,8.607-2.498
				c1.938-1.668,2.911-3.661,2.911-5.978C867.288,376.151,866.587,374.493,865.188,373.302z M895.563,360.897h-8.25l-7.846,8.905
				V351.28h-6.698v34.901h6.698v-8.095l3.124-3.262l6.366,11.356h7.226l-9.276-16.047L895.563,360.897z M917.544,350.687h-7.512
				l-3.292,7.119h4.246L917.544,350.687z M920.5,377.874l0.072-7.809c0-2.905-0.297-4.901-0.895-5.988
				c-0.597-1.088-1.627-1.982-3.089-2.688c-1.463-0.707-3.687-1.062-6.675-1.062c-3.292,0-5.77,0.588-7.439,1.762
				c-1.67,1.175-2.848,2.986-3.528,5.429l6.078,1.094c0.415-1.174,0.955-1.993,1.621-2.464c0.669-0.467,1.598-0.7,2.792-0.7
				c1.763,0,2.963,0.273,3.601,0.821c0.635,0.546,0.952,1.463,0.952,2.749v0.667c-1.209,0.508-3.379,1.056-6.508,1.641
				c-2.322,0.444-4.1,0.964-5.331,1.562c-1.231,0.594-2.189,1.45-2.873,2.569s-1.024,2.395-1.024,3.822
				c0,2.158,0.75,3.943,2.253,5.357c1.503,1.41,3.557,2.117,6.165,2.117c1.477,0,2.867-0.277,4.171-0.834
				c1.304-0.554,2.526-1.388,3.672-2.498c0.049,0.127,0.127,0.387,0.239,0.784c0.254,0.874,0.468,1.532,0.644,1.977h6.629
				c-0.589-1.206-0.989-2.337-1.203-3.393C920.607,381.733,920.5,380.095,920.5,377.874z M913.99,375.373
				c0,1.604-0.087,2.691-0.263,3.263c-0.254,0.871-0.785,1.609-1.596,2.212c-1.099,0.796-2.25,1.191-3.458,1.191
				c-1.082,0-1.971-0.341-2.672-1.024c-0.697-0.681-1.047-1.491-1.047-2.429c0-0.951,0.436-1.736,1.31-2.356
				c0.574-0.381,1.788-0.768,3.649-1.165c1.86-0.396,3.219-0.739,4.076-1.024V375.373z M944.42,351.676
				c-1.215,0.657-2.049,1.512-2.502,2.559c-0.455,1.047-0.681,2.634-0.681,4.76v1.903h-3.721v5.262h3.721v20.022h6.701v-20.022
				h5.008v-5.262h-5.008v-1.785c0-1.283,0.211-2.152,0.632-2.604c0.421-0.453,1.116-0.679,2.086-0.679
				c0.986,0,2.01,0.127,3.074,0.381l0.909-4.667c-1.829-0.571-3.698-0.856-5.604-0.856
				C947.174,350.687,945.637,351.016,944.42,351.676z M956.566,386.182h6.701v-25.284h-6.701V386.182z M956.566,357.471h6.701v-6.19
				h-6.701V357.471z M969.985,386.182h6.701V351.28h-6.701V386.182z M1016.575,361.457c-1.287-0.753-2.861-1.13-4.723-1.13
				c-1.462,0-2.835,0.334-4.125,1c-1.286,0.667-2.486,1.677-3.6,3.023c-0.762-1.347-1.739-2.356-2.931-3.023
				c-1.194-0.666-2.602-1-4.224-1c-3.052,0-5.683,1.344-7.892,4.023v-3.453h-6.173v25.284h6.697v-12.286
				c0-2.426,0.179-4.165,0.537-5.212c0.357-1.047,0.952-1.85,1.776-2.403c0.825-0.557,1.757-0.833,2.79-0.833
				c0.859,0,1.537,0.173,2.039,0.521c0.499,0.35,0.871,0.883,1.107,1.596c0.239,0.715,0.358,2.302,0.358,4.763v13.854h6.7V374.04
				c0-2.38,0.182-4.122,0.549-5.224c0.366-1.105,0.963-1.941,1.788-2.513s1.708-0.856,2.648-0.856c1.286,0,2.241,0.476,2.861,1.428
				c0.459,0.729,0.689,2.348,0.689,4.854v14.452h6.701v-16.166c0-2.411-0.231-4.156-0.692-5.235
				C1018.825,363.318,1017.861,362.213,1016.575,361.457z M1038.175,360.327c-2.48,0-4.725,0.548-6.735,1.644
				c-2.011,1.097-3.565,2.683-4.662,4.76c-1.099,2.08-1.646,4.231-1.646,6.453c0,2.904,0.548,5.368,1.646,7.39
				c1.097,2.025,2.697,3.561,4.804,4.607c2.108,1.05,4.321,1.572,6.643,1.572c3.75,0,6.862-1.258,9.332-3.773
				c2.475-2.516,3.71-5.686,3.71-9.511c0-3.793-1.224-6.932-3.673-9.415C1045.145,361.57,1042.006,360.327,1038.175,360.327z
				 M1042.597,379.302c-1.183,1.333-2.65,1.999-4.398,1.999s-3.22-0.666-4.411-1.999s-1.788-3.254-1.788-5.761
				s0.597-4.428,1.788-5.761c1.191-1.335,2.663-2.002,4.411-2.002s3.216,0.667,4.398,2.002c1.186,1.333,1.777,3.236,1.777,5.712
				C1044.374,376.033,1043.782,377.969,1042.597,379.302z M1067.713,373.804c-0.254,0.712-0.493,1.428-0.715,2.141
				c-0.096,0.349-0.326,1.072-0.689,2.166l-1.385-4.307l-4.769-12.906h-7.032l10.203,25.284h6.034l10.062-25.284h-6.892
				L1067.713,373.804z M1103.857,377.874l0.072-7.809c0-2.905-0.297-4.901-0.895-5.988c-0.594-1.088-1.624-1.982-3.086-2.688
				c-1.463-0.707-3.689-1.062-6.679-1.062c-3.288,0-5.769,0.588-7.438,1.762c-1.668,1.175-2.845,2.986-3.528,5.429l6.081,1.094
				c0.412-1.174,0.951-1.993,1.621-2.464c0.666-0.467,1.598-0.7,2.789-0.7c1.766,0,2.966,0.273,3.6,0.821
				c0.638,0.546,0.955,1.463,0.955,2.749v0.667c-1.209,0.508-3.378,1.056-6.511,1.641c-2.319,0.444-4.096,0.964-5.327,1.562
				c-1.232,0.594-2.189,1.45-2.873,2.569s-1.027,2.395-1.027,3.822c0,2.158,0.753,3.943,2.256,5.357
				c1.5,1.41,3.554,2.117,6.161,2.117c1.48,0,2.87-0.277,4.175-0.834c1.301-0.554,2.526-1.388,3.672-2.498
				c0.046,0.127,0.127,0.387,0.236,0.784c0.257,0.874,0.47,1.532,0.644,1.977h6.629c-0.586-1.206-0.99-2.337-1.203-3.393
				C1103.967,381.733,1103.857,380.095,1103.857,377.874z M1097.35,375.373c0,1.604-0.086,2.691-0.263,3.263
				c-0.254,0.871-0.787,1.609-1.598,2.212c-1.097,0.796-2.25,1.191-3.456,1.191c-1.082,0-1.973-0.341-2.671-1.024
				c-0.701-0.681-1.05-1.491-1.05-2.429c0-0.951,0.436-1.736,1.313-2.356c0.571-0.381,1.788-0.768,3.646-1.165
				c1.861-0.396,3.22-0.739,4.079-1.024V375.373z M1100.9,350.687h-7.508l-3.292,7.119h4.243L1100.9,350.687z M1140.333,363.852
				c-2.065-2.348-4.515-3.524-7.344-3.524c-3.084,0-5.634,1.116-7.653,3.346c-2.019,2.229-3.028,5.486-3.028,9.773
				c0,4.188,1.038,7.453,3.112,9.796c2.074,2.339,4.566,3.511,7.474,3.511c1.431,0,2.851-0.353,4.258-1.059
				c1.405-0.707,2.625-1.783,3.658-3.226v3.713h6.225V351.28h-6.701V363.852z M1138.735,379.504
				c-1.079,1.31-2.392,1.964-3.935,1.964c-1.938,0-3.447-0.874-4.529-2.619c-0.747-1.206-1.122-3.158-1.122-5.855
				c0-2.507,0.537-4.394,1.61-5.654c1.072-1.263,2.405-1.892,3.994-1.892c1.636,0,2.98,0.637,4.03,1.915
				c1.05,1.277,1.572,3.369,1.572,6.274C1140.356,376.238,1139.816,378.194,1138.735,379.504z M1173.974,377.874l0.072-7.809
				c0-2.905-0.298-4.901-0.895-5.988c-0.597-1.088-1.624-1.982-3.087-2.688c-1.462-0.707-3.689-1.062-6.678-1.062
				c-3.291,0-5.769,0.588-7.439,1.762c-1.67,1.175-2.844,2.986-3.527,5.429l6.078,1.094c0.415-1.174,0.954-1.993,1.624-2.464
				c0.666-0.467,1.595-0.7,2.789-0.7c1.766,0,2.962,0.273,3.6,0.821c0.635,0.546,0.955,1.463,0.955,2.749v0.667
				c-1.209,0.508-3.378,1.056-6.511,1.641c-2.322,0.444-4.096,0.964-5.33,1.562c-1.229,0.594-2.189,1.45-2.873,2.569
				c-0.682,1.119-1.024,2.395-1.024,3.822c0,2.158,0.75,3.943,2.253,5.357c1.503,1.41,3.557,2.117,6.164,2.117
				c1.478,0,2.87-0.277,4.172-0.834c1.304-0.554,2.529-1.388,3.672-2.498c0.049,0.127,0.13,0.387,0.239,0.784
				c0.254,0.874,0.47,1.532,0.644,1.977h6.629c-0.589-1.206-0.99-2.337-1.203-3.393
				C1174.08,381.733,1173.974,380.095,1173.974,377.874z M1167.466,375.373c0,1.604-0.089,2.691-0.263,3.263
				c-0.257,0.871-0.787,1.609-1.598,2.212c-1.097,0.796-2.25,1.191-3.459,1.191c-1.082,0-1.97-0.341-2.668-1.024
				c-0.701-0.681-1.05-1.491-1.05-2.429c0-0.951,0.436-1.736,1.313-2.356c0.571-0.381,1.785-0.768,3.646-1.165
				c1.861-0.396,3.22-0.739,4.079-1.024V375.373z M1189.397,381.205c-0.444,0-0.822-0.109-1.131-0.331
				c-0.312-0.223-0.511-0.505-0.597-0.846c-0.087-0.343-0.13-1.543-0.13-3.608v-10.188h4.575v-5.334h-4.575v-8.925l-6.728,3.903
				v5.021h-3.074v5.334h3.074v11.022c0,2.365,0.072,3.938,0.217,4.713c0.176,1.097,0.487,1.965,0.94,2.607
				c0.453,0.644,1.165,1.166,2.135,1.569c0.969,0.407,2.06,0.609,3.269,0.609c1.97,0,3.732-0.332,5.293-1.001l-0.574-5.189
				C1190.915,380.992,1190.018,381.205,1189.397,381.205z M1217.102,377.874l0.072-7.809c0-2.905-0.298-4.901-0.895-5.988
				c-0.598-1.088-1.627-1.982-3.09-2.688c-1.462-0.707-3.687-1.062-6.675-1.062c-3.291,0-5.769,0.588-7.439,1.762
				c-1.67,1.175-2.847,2.986-3.527,5.429l6.08,1.094c0.413-1.174,0.952-1.993,1.621-2.464c0.667-0.467,1.599-0.7,2.79-0.7
				c1.762,0,2.962,0.273,3.6,0.821c0.635,0.546,0.955,1.463,0.955,2.749v0.667c-1.209,0.508-3.381,1.056-6.511,1.641
				c-2.322,0.444-4.099,0.964-5.328,1.562c-1.234,0.594-2.192,1.45-2.873,2.569c-0.687,1.119-1.026,2.395-1.026,3.822
				c0,2.158,0.75,3.943,2.253,5.357c1.503,1.41,3.557,2.117,6.164,2.117c1.477,0,2.87-0.277,4.171-0.834
				c1.304-0.554,2.53-1.388,3.672-2.498c0.05,0.127,0.127,0.387,0.24,0.784c0.254,0.874,0.467,1.532,0.643,1.977h6.629
				c-0.588-1.206-0.989-2.337-1.203-3.393C1217.208,381.733,1217.102,380.095,1217.102,377.874z M1210.594,375.373
				c0,1.604-0.09,2.691-0.263,3.263c-0.257,0.871-0.787,1.609-1.598,2.212c-1.1,0.796-2.25,1.191-3.459,1.191
				c-1.082,0-1.97-0.341-2.671-1.024c-0.698-0.681-1.047-1.491-1.047-2.429c0-0.951,0.436-1.736,1.309-2.356
				c0.574-0.381,1.789-0.768,3.649-1.165c1.86-0.396,3.22-0.739,4.079-1.024V375.373z M1237.389,360.327
				c-2.83,0-5.275,1.177-7.342,3.524V351.28h-6.7v34.901h6.222v-3.713c1.019,1.411,2.23,2.479,3.638,3.202
				c1.405,0.721,2.833,1.082,4.278,1.082c2.941,0,5.439-1.166,7.5-3.499c2.059-2.334,3.089-5.66,3.089-9.976
				c0-4.174-1.013-7.376-3.028-9.605C1243.025,361.443,1240.473,360.327,1237.389,360.327z M1239.642,379.575
				c-1.041,1.261-2.299,1.893-3.778,1.893c-1.922,0-3.465-0.889-4.625-2.665c-0.827-1.255-1.24-3.19-1.24-5.81
				c0-2.539,0.534-4.434,1.599-5.677c1.064-1.246,2.399-1.869,4.004-1.869c1.638,0,2.982,0.637,4.029,1.915
				c1.05,1.277,1.575,3.36,1.575,6.251C1241.205,376.325,1240.683,378.313,1239.642,379.575z M1270.839,350.687h-7.509l-3.291,7.119
				h4.243L1270.839,350.687z M1273.795,377.874l0.072-7.809c0-2.905-0.297-4.901-0.894-5.988c-0.595-1.088-1.624-1.982-3.087-2.688
				c-1.463-0.707-3.689-1.062-6.678-1.062c-3.289,0-5.77,0.588-7.439,1.762c-1.667,1.175-2.845,2.986-3.528,5.429l6.081,1.094
				c0.412-1.174,0.952-1.993,1.621-2.464c0.666-0.467,1.598-0.7,2.789-0.7c1.766,0,2.966,0.273,3.601,0.821
				c0.635,0.546,0.955,1.463,0.955,2.749v0.667c-1.209,0.508-3.378,1.056-6.511,1.641c-2.322,0.444-4.097,0.964-5.328,1.562
				c-1.234,0.594-2.192,1.45-2.873,2.569c-0.687,1.119-1.027,2.395-1.027,3.822c0,2.158,0.753,3.943,2.253,5.357
				c1.503,1.41,3.558,2.117,6.165,2.117c1.477,0,2.87-0.277,4.174-0.834c1.301-0.554,2.527-1.388,3.672-2.498
				c0.047,0.127,0.127,0.387,0.236,0.784c0.254,0.874,0.471,1.532,0.646,1.977h6.626c-0.586-1.206-0.989-2.337-1.203-3.393
				C1273.905,381.733,1273.795,380.095,1273.795,377.874z M1267.288,375.373c0,1.604-0.09,2.691-0.263,3.263
				c-0.254,0.871-0.788,1.609-1.599,2.212c-1.096,0.796-2.25,1.191-3.458,1.191c-1.079,0-1.971-0.341-2.672-1.024
				c-0.697-0.681-1.047-1.491-1.047-2.429c0-0.951,0.436-1.736,1.31-2.356c0.574-0.381,1.792-0.768,3.649-1.165
				c1.86-0.396,3.219-0.739,4.079-1.024V375.373z M1286.407,380.467l3.409-3.689l9.681-11.14v-4.74h-20.937v5.548l8.942-0.047
				c1.272-0.017,2.296-0.049,3.075-0.095c-0.747,0.747-1.898,2.008-3.456,3.784l-9.49,10.881v5.213h22.604V380.3h-10.373
				C1289.418,380.3,1288.268,380.357,1286.407,380.467z M1317.639,380.896c-0.716,0.571-1.599,0.857-2.646,0.857
				c-1.543,0-2.83-0.552-3.862-1.656c-1.035-1.102-1.575-2.646-1.624-4.63h16.788c0.096-5.126-0.946-8.931-3.124-11.414
				s-5.148-3.727-8.919-3.727c-3.352,0-6.127,1.188-8.319,3.56c-2.195,2.374-3.291,5.653-3.291,9.845
				c0,3.508,0.833,6.412,2.504,8.712c2.114,2.873,5.371,4.31,9.775,4.31c2.781,0,5.098-0.638,6.949-1.916
				c1.853-1.277,3.208-3.139,4.067-5.584l-6.678-1.119C1318.894,379.405,1318.354,380.325,1317.639,380.896z M1311.033,367.042
				c0.954-1.064,2.163-1.595,3.625-1.595c1.368,0,2.527,0.502,3.482,1.511c0.951,1.007,1.453,2.481,1.503,4.417h-10.016
				C1309.61,369.549,1310.081,368.104,1311.033,367.042z"/>
		</g>
	</g>
</g>
</svg>
